<?xml version="1.0" standalone="no"?>
<!DOCTYPE svg PUBLIC "-//W3C//DTD SVG 20010904//EN"
 "http://www.w3.org/TR/2001/REC-SVG-20010904/DTD/svg10.dtd">
<svg version="1.0" xmlns="http://www.w3.org/2000/svg"
 width="300.000000pt" height="300.000000pt" viewBox="0 0 300.000000 300.000000"
 preserveAspectRatio="xMidYMid meet">

<g transform="translate(0.000000,300.000000) scale(0.100000,-0.100000)"
fill="#000000" stroke="none">
<path d="M950 1905 l0 -585 545 0 545 0 0 585 0 585 -545 0 -545 0 0 -585z
m1010 0 l0 -505 -465 0 -465 0 0 505 0 505 465 0 465 0 0 -505z"/>
<path d="M1210 2215 c0 -72 1 -77 50 -152 l49 -78 -49 -3 -50 -3 0 -230 0
-229 296 0 296 0 -18 28 c-9 15 -55 83 -101 152 l-83 125 75 3 75 3 0 74 0 75
-125 0 -124 0 -51 75 c-27 41 -50 77 -50 80 0 3 86 5 190 5 l190 0 0 75 0 75
-285 0 -285 0 0 -75z m253 -460 c26 -41 47 -77 47 -80 0 -3 -33 -5 -72 -3
l-73 3 -3 64 c-4 78 1 91 30 91 18 0 34 -18 71 -75z"/>
<path d="M2553 1164 c-39 -19 -67 -74 -58 -113 9 -40 38 -64 127 -104 91 -42
117 -76 98 -132 -15 -45 -49 -65 -109 -65 -40 0 -54 5 -80 29 -17 16 -31 36
-31 45 0 9 -7 16 -15 16 -39 0 6 -74 60 -100 49 -24 83 -25 129 -6 48 20 76
61 76 110 0 59 -18 79 -117 126 -95 45 -112 61 -113 103 0 71 107 105 164 52
30 -28 52 -25 36 4 -11 21 -79 51 -113 51 -12 0 -36 -8 -54 -16z"/>
<path d="M270 945 l0 -225 140 0 c118 0 140 2 140 15 0 13 -21 15 -130 15
l-130 0 0 90 0 90 115 0 c96 0 115 3 115 15 0 12 -19 15 -115 15 l-115 0 0 90
0 90 130 0 c109 0 130 2 130 15 0 13 -22 15 -140 15 l-140 0 0 -225z"/>
<path d="M670 945 c0 -140 4 -225 10 -225 6 0 11 79 12 203 l3 202 116 -200
c64 -110 124 -201 133 -203 14 -3 16 20 16 222 0 144 -4 226 -10 226 -6 0 -10
-72 -10 -195 0 -107 -4 -195 -8 -195 -4 0 -59 88 -121 195 -63 107 -120 195
-127 195 -11 0 -14 -42 -14 -225z"/>
<path d="M1120 945 c0 -143 4 -225 10 -225 6 0 10 82 10 225 0 143 -4 225 -10
225 -6 0 -10 -82 -10 -225z"/>
<path d="M1405 1153 c-4 -10 -37 -103 -75 -208 -37 -104 -71 -198 -75 -207 -5
-13 -2 -18 8 -18 9 0 22 19 33 48 27 74 26 73 132 70 l96 -3 22 -55 c19 -48
44 -77 44 -53 1 24 -157 443 -166 443 -7 0 -15 -8 -19 -17z m70 -166 l45 -127
-95 0 c-52 0 -95 2 -95 4 0 3 39 115 85 245 3 8 7 12 10 9 2 -2 25 -61 50
-131z"/>
<path d="M1620 1155 c0 -12 16 -15 80 -15 l80 0 0 -210 c0 -133 4 -210 10
-210 6 0 10 77 10 210 l0 209 82 3 c54 2 83 7 86 16 3 9 -36 12 -172 12 -150
0 -176 -2 -176 -15z"/>
<path d="M2060 1000 c0 -122 4 -180 14 -204 39 -93 176 -114 249 -38 36 37 47
103 47 273 0 117 -2 139 -15 139 -13 0 -15 -24 -15 -160 0 -121 -4 -169 -16
-199 -21 -52 -65 -76 -129 -69 -94 11 -115 66 -115 301 0 78 -4 127 -10 127
-6 0 -10 -63 -10 -170z"/>
</g>
</svg>
