<?xml version="1.0" standalone="no"?>
<!DOCTYPE svg PUBLIC "-//W3C//DTD SVG 20010904//EN"
 "http://www.w3.org/TR/2001/REC-SVG-20010904/DTD/svg10.dtd">
<svg version="1.0" xmlns="http://www.w3.org/2000/svg"
 width="300.000000pt" height="300.000000pt" viewBox="0 0 300.000000 300.000000"
 preserveAspectRatio="xMidYMid meet">

<g transform="translate(0.000000,300.000000) scale(0.100000,-0.100000)"
fill="#000000" stroke="none">
<path d="M1092 1823 l3 -448 413 -3 412 -2 0 450 0 450 -415 0 -415 0 2 -447z
m768 2 l0 -385 -350 0 -350 0 0 385 0 385 350 0 350 0 0 -385z"/>
<path d="M1300 2058 c0 -54 5 -71 35 -118 l34 -55 -34 -3 -35 -3 0 -175 0
-174 220 0 c121 0 220 2 220 5 0 3 -31 53 -70 110 -38 57 -70 106 -70 109 0 3
24 6 53 8 l52 3 3 58 3 57 -98 0 -98 0 -37 58 -37 57 144 3 145 3 0 59 0 60
-215 0 -215 0 0 -62z m188 -348 c17 -27 32 -52 32 -55 0 -3 -25 -5 -55 -5
l-55 0 0 55 c0 50 2 55 23 55 15 0 32 -15 55 -50z"/>
<path d="M230 1230 l0 -40 200 0 200 0 0 40 0 40 -200 0 -200 0 0 -40z"/>
<path d="M680 1095 l0 -175 40 0 39 0 3 131 3 131 118 -102 c99 -86 117 -106
117 -131 0 -27 2 -29 40 -29 l40 0 0 175 0 175 -40 0 -39 0 -3 -94 -3 -93
-109 93 c-105 91 -111 94 -158 94 l-48 0 0 -175z"/>
<path d="M1130 1095 l0 -175 40 0 40 0 0 175 0 175 -40 0 -40 0 0 -175z"/>
<path d="M1319 1095 l-97 -175 224 0 c123 0 224 3 224 6 0 3 -16 34 -35 68
-19 35 -35 66 -35 69 0 4 25 7 55 7 l55 0 0 -75 0 -75 40 0 40 0 0 75 0 75 60
0 60 0 0 40 0 40 -165 0 -165 0 0 -27 c0 -23 -10 -11 -49 57 -44 78 -51 85
-82 88 l-34 2 -96 -175z m180 -10 c23 -41 41 -77 41 -80 0 -3 -42 -5 -94 -5
l-94 0 46 84 c26 46 50 82 54 80 3 -2 25 -38 47 -79z"/>
<path d="M1580 1230 l0 -40 165 0 165 0 0 40 0 40 -165 0 -165 0 0 -40z"/>
<path d="M1942 1130 l3 -140 33 -32 32 -33 118 -3 c109 -3 119 -2 152 20 48
32 59 72 59 211 l1 117 -40 0 -39 0 -3 -132 -3 -133 -115 0 -115 0 -3 133 -3
132 -40 0 -41 0 4 -140z"/>
<path d="M2433 1255 c-31 -13 -63 -59 -63 -90 0 -58 63 -105 139 -105 35 0 43
-4 56 -30 l16 -30 -61 0 c-45 0 -62 4 -66 15 -4 10 -20 15 -45 15 -44 0 -44 1
-25 -44 23 -54 67 -68 201 -64 109 3 115 4 143 31 36 35 45 71 27 114 -18 42
-53 64 -116 72 -38 4 -56 12 -67 29 -14 22 -14 22 46 22 34 0 64 -4 67 -10 3
-5 22 -10 41 -10 26 0 34 4 34 18 0 23 -34 60 -67 73 -38 14 -223 10 -260 -6z
m52 -113 c-23 -5 -39 13 -31 35 7 16 9 16 28 -7 19 -23 19 -25 3 -28z m203
-109 c4 -29 -23 -31 -38 -4 -15 28 -13 33 13 29 14 -2 23 -11 25 -25z"/>
<path d="M2112 1158 c-7 -7 -12 -18 -12 -24 0 -14 27 -44 40 -44 5 0 16 7 24
16 9 8 16 19 16 24 0 13 -30 40 -44 40 -6 0 -17 -5 -24 -12z"/>
<path d="M230 1025 l0 -105 200 0 200 0 0 40 0 40 -160 0 -160 0 0 25 0 24
143 3 142 3 3 38 3 37 -185 0 -186 0 0 -105z"/>
<path d="M896 984 c-9 -8 -16 -21 -16 -28 0 -16 20 -36 36 -36 14 0 44 27 44
40 0 5 -7 16 -16 24 -8 9 -19 16 -24 16 -5 0 -16 -7 -24 -16z"/>
</g>
</svg>
