<?xml version="1.0" standalone="no"?>
<!DOCTYPE svg PUBLIC "-//W3C//DTD SVG 20010904//EN"
 "http://www.w3.org/TR/2001/REC-SVG-20010904/DTD/svg10.dtd">
<svg version="1.0" xmlns="http://www.w3.org/2000/svg"
 width="330.000000pt" height="150.000000pt" viewBox="0 0 330.000000 150.000000"
 preserveAspectRatio="xMidYMid meet">

<g transform="translate(0.000000,150.000000) scale(0.100000,-0.100000)"
fill="#000000" stroke="none">
<path d="M455 1059 c-47 -11 -120 -59 -155 -102 -30 -37 -59 -120 -60 -168 -1
-148 128 -279 275 -279 123 0 199 45 252 149 38 72 44 146 17 223 -43 126
-197 209 -329 177z m92 -98 c3 -11 18 -24 34 -30 30 -10 33 -18 23 -45 -4 -12
-16 -14 -55 -9 -45 5 -49 4 -49 -16 0 -16 11 -27 44 -41 51 -22 76 -53 76 -95
-1 -34 -15 -56 -47 -73 -12 -7 -23 -22 -25 -34 -4 -31 -52 -33 -56 -2 -2 13
-14 23 -35 30 -26 7 -31 14 -29 33 3 33 5 34 47 22 41 -11 75 -1 75 24 0 7
-24 26 -52 42 -63 34 -83 66 -67 112 6 18 24 38 40 47 17 8 29 23 29 34 0 27
40 27 47 1z"/>
<path d="M805 1063 c-45 -10 -45 -12 -5 -70 53 -75 74 -147 68 -234 -6 -76
-38 -153 -87 -206 l-29 -32 32 -7 c142 -32 292 56 332 194 48 164 -70 337
-241 354 -27 3 -59 4 -70 1z"/>
<path d="M1364 785 c0 -159 2 -223 3 -142 2 82 2 212 0 290 -1 78 -3 12 -3
-148z"/>
<path d="M1590 900 c0 -5 5 -10 10 -10 6 0 10 -37 10 -90 0 -53 -4 -90 -10
-90 -5 0 -10 -4 -10 -10 0 -6 32 -10 75 -10 68 0 75 2 75 20 0 11 -4 20 -10
20 -5 0 -10 -4 -10 -10 0 -5 -20 -10 -45 -10 l-45 0 0 40 c0 38 2 40 30 40 17
0 30 -4 30 -10 0 -5 5 -10 10 -10 6 0 10 14 10 30 0 17 -4 30 -10 30 -5 0 -10
-4 -10 -10 0 -5 -13 -10 -30 -10 -28 0 -30 2 -30 41 l0 41 55 -4 c41 -4 55 -1
55 9 0 10 -19 13 -75 13 -43 0 -75 -4 -75 -10z"/>
<path d="M1780 900 c0 -5 5 -10 10 -10 6 0 10 -37 10 -90 0 -53 -4 -90 -10
-90 -5 0 -10 -4 -10 -10 0 -5 14 -10 30 -10 29 0 42 14 20 22 -7 2 -10 32 -8
78 l3 75 58 -87 c31 -49 62 -88 67 -88 6 0 10 40 10 100 0 60 4 100 10 100 6
0 10 5 10 10 0 6 -13 10 -30 10 -29 0 -42 -14 -20 -22 7 -2 10 -32 8 -78 l-3
-75 -58 88 c-40 61 -63 87 -77 87 -11 0 -20 -4 -20 -10z"/>
<path d="M2020 900 c0 -5 5 -10 10 -10 6 0 10 -37 10 -90 0 -53 -4 -90 -10
-90 -5 0 -10 -4 -10 -10 0 -5 14 -10 30 -10 17 0 30 5 30 10 0 6 -4 10 -10 10
-6 0 -10 37 -10 90 0 53 4 90 10 90 6 0 10 5 10 10 0 6 -13 10 -30 10 -16 0
-30 -4 -30 -10z"/>
<path d="M2186 810 c-21 -55 -42 -100 -47 -100 -5 0 -9 -4 -9 -10 0 -5 14 -10
30 -10 28 0 42 14 20 22 -7 2 -6 15 2 36 11 29 16 32 54 32 38 0 43 -3 53 -32
8 -22 8 -34 1 -36 -22 -8 -9 -22 20 -22 17 0 30 5 30 10 0 6 -4 10 -9 10 -5 0
-25 45 -46 100 -21 55 -43 100 -49 100 -6 0 -29 -45 -50 -100z m69 27 l15 -37
-34 0 -34 0 15 40 c9 22 18 39 19 37 2 -2 10 -20 19 -40z"/>
<path d="M2390 890 c0 -11 5 -20 10 -20 6 0 10 5 10 10 0 6 11 10 25 10 25 0
25 -1 25 -84 0 -47 -4 -88 -10 -91 -20 -12 -9 -25 20 -25 17 0 30 5 30 10 0 6
-4 10 -10 10 -6 0 -10 37 -10 90 0 80 2 90 18 90 10 0 23 -5 30 -12 9 -9 12
-7 12 10 0 21 -4 22 -75 22 -68 0 -75 -2 -75 -20z"/>
<path d="M2590 900 c0 -5 5 -10 10 -10 6 0 10 -33 10 -79 0 -86 9 -105 56
-117 27 -7 72 2 91 18 9 7 13 39 13 94 0 49 4 84 10 84 6 0 10 5 10 10 0 6
-13 10 -30 10 -16 0 -30 -4 -30 -10 0 -5 5 -10 10 -10 7 0 10 -30 8 -82 -3
-80 -4 -83 -31 -92 -21 -8 -35 -7 -55 5 -25 14 -27 20 -30 92 -2 49 1 77 8 77
5 0 10 5 10 10 0 6 -13 10 -30 10 -16 0 -30 -4 -30 -10z"/>
<path d="M2872 898 c-26 -13 -39 -54 -25 -77 6 -9 31 -21 56 -28 58 -14 67
-20 67 -42 0 -25 -20 -41 -51 -41 -38 0 -59 10 -59 26 0 8 -5 14 -11 14 -6 0
-9 -10 -7 -22 6 -43 115 -49 141 -7 5 9 7 28 3 42 -5 22 -16 29 -61 42 -61 18
-69 26 -60 55 11 35 95 39 95 4 0 -8 5 -14 10 -14 6 0 10 9 10 20 0 34 -62 50
-108 28z"/>
</g>
</svg>
