<?xml version="1.0" standalone="no"?>
<!DOCTYPE svg PUBLIC "-//W3C//DTD SVG 20010904//EN"
 "http://www.w3.org/TR/2001/REC-SVG-20010904/DTD/svg10.dtd">
<svg version="1.0" xmlns="http://www.w3.org/2000/svg"
 width="330.000000pt" height="150.000000pt" viewBox="0 0 330.000000 150.000000"
 preserveAspectRatio="xMidYMid meet">

<g transform="translate(0.000000,150.000000) scale(0.100000,-0.100000)"
fill="#000000" stroke="none">
<path d="M781 930 c-4 -141 -1 -413 5 -419 2 -2 4 47 4 111 0 63 3 118 7 121
8 8 8 66 -1 87 -3 8 -7 60 -9 115 l-3 100 -3 -115z"/>
<path d="M343 925 c-41 -18 -79 -76 -94 -143 -20 -94 9 -142 86 -142 35 0 52
6 70 25 14 13 25 31 25 39 0 13 -4 13 -30 -2 -36 -21 -63 -8 -68 30 -3 21 3
26 37 36 54 17 91 62 91 112 0 58 -46 76 -117 45z m77 -44 c0 -32 -43 -91 -66
-91 -19 0 -18 24 2 63 34 65 64 79 64 28z"/>
<path d="M1110 916 c0 -8 9 -18 20 -21 18 -6 20 -15 20 -110 0 -96 -2 -104
-21 -110 -11 -4 -18 -12 -16 -18 2 -8 41 -13 115 -15 l112 -3 0 46 c0 54 -25
63 -41 15 -10 -27 -15 -30 -55 -30 l-44 0 0 55 c0 52 2 55 24 55 16 0 27 -7
31 -19 4 -12 12 -18 21 -14 20 8 20 93 -1 93 -9 0 -18 -7 -21 -15 -4 -8 -17
-15 -30 -15 -22 0 -24 4 -24 45 l0 45 44 0 c35 0 45 -4 49 -20 3 -11 12 -20
21 -20 12 0 16 10 16 35 l0 35 -110 0 c-89 0 -110 -3 -110 -14z"/>
<path d="M1370 915 c0 -9 7 -18 15 -21 12 -5 15 -27 15 -109 0 -82 -3 -104
-15 -109 -8 -3 -15 -12 -15 -21 0 -21 85 -21 93 -1 4 9 -2 17 -14 21 -17 6
-19 16 -19 91 0 50 4 83 9 79 5 -3 40 -50 77 -105 94 -139 104 -137 104 24 0
115 2 125 19 131 12 4 18 12 14 21 -8 20 -93 20 -93 -1 0 -9 7 -18 15 -21 12
-5 15 -24 14 -88 0 -44 -3 -74 -6 -66 -3 8 -33 54 -67 103 -60 87 -60 87 -103
87 -32 0 -43 -4 -43 -15z"/>
<path d="M1700 915 c0 -9 7 -18 15 -21 12 -5 15 -27 15 -109 0 -82 -3 -104
-15 -109 -8 -3 -15 -12 -15 -21 0 -12 13 -15 60 -15 47 0 60 3 60 15 0 9 -7
18 -15 21 -12 5 -15 27 -15 109 0 82 3 104 15 109 8 3 15 12 15 21 0 12 -13
15 -60 15 -47 0 -60 -3 -60 -15z"/>
<path d="M1979 903 c-50 -136 -86 -216 -101 -224 -10 -5 -18 -16 -18 -24 0
-11 13 -15 55 -15 57 0 75 17 36 36 -15 7 -17 14 -10 32 7 19 16 22 59 22 43
0 52 -3 59 -22 6 -16 4 -25 -5 -31 -8 -4 -14 -15 -14 -22 0 -21 115 -21 123
-1 3 8 -4 18 -16 24 -16 7 -34 42 -65 131 -40 110 -46 121 -68 121 -18 0 -27
-8 -35 -27z m28 -141 c-16 -2 -31 -1 -34 2 -3 3 3 28 13 56 l18 50 16 -52 16
-53 -29 -3z"/>
<path d="M2182 888 c4 -50 22 -60 36 -18 8 23 17 30 36 30 l26 0 0 -109 c0
-102 -1 -110 -21 -116 -39 -13 -13 -30 49 -33 49 -2 62 0 62 12 0 8 -9 18 -20
21 -18 6 -20 15 -20 116 l0 109 26 0 c19 0 28 -7 36 -30 14 -42 32 -32 36 18
l3 42 -126 0 -126 0 3 -42z"/>
<path d="M2460 916 c0 -8 9 -18 20 -21 18 -6 20 -15 20 -101 0 -92 1 -97 29
-125 24 -24 38 -29 76 -29 90 0 115 36 115 164 0 75 2 85 19 91 12 4 18 12 14
21 -8 20 -93 20 -93 -1 0 -9 7 -18 15 -21 12 -5 15 -25 15 -89 0 -96 -20 -135
-69 -135 -49 0 -66 31 -69 130 -4 83 -3 88 18 95 40 13 15 30 -48 33 -49 2
-62 0 -62 -12z"/>
<path d="M2822 918 c-35 -17 -46 -84 -19 -117 6 -7 35 -24 64 -38 59 -28 78
-46 70 -68 -15 -37 -103 -30 -113 10 -10 38 -34 31 -34 -10 0 -43 20 -55 95
-55 46 0 60 4 80 25 49 48 26 99 -66 145 -47 24 -59 35 -59 54 0 25 17 36 56
36 16 0 28 -9 39 -31 19 -37 39 -33 43 7 2 24 -2 33 -23 42 -32 15 -102 14
-133 0z"/>
<path d="M832 804 c-7 -8 -8 -14 -3 -14 10 0 25 19 20 25 -2 1 -10 -3 -17 -11z"/>
<path d="M730 800 c0 -5 5 -10 11 -10 5 0 7 5 4 10 -3 6 -8 10 -11 10 -2 0 -4
-4 -4 -10z"/>
<path d="M730 769 c0 -5 5 -7 10 -4 6 3 10 8 10 11 0 2 -4 4 -10 4 -5 0 -10
-5 -10 -11z"/>
<path d="M832 766 c7 -8 15 -12 17 -11 5 6 -10 25 -20 25 -5 0 -4 -6 3 -14z"/>
</g>
</svg>
