<svg width="116" height="116" viewBox="0 0 116 116" fill="none" xmlns="http://www.w3.org/2000/svg">
<path d="M0.3375 1.2C0.0375 1.89999 -0.0625 27.9 0.0375 59L0.3375 115.5H57.8375H115.338L115.638 57.7L115.838 0H58.3375C13.2375 0 0.6375 0.299995 0.3375 1.2ZM110.838 58V111L58.1375 110.8L5.3375 110.5L5.0375 57.7L4.8375 5H57.8375H110.838V58Z" fill="white"/>
<path d="M77.1375 23.4C73.6375 24.1 67.3375 26.4 63.1375 28.6C56.7375 31.8 53.2375 34.6 43.9375 44C36.9375 51 31.8375 57.2 30.6375 59.8C28.7375 64.1 26.9375 75 28.2375 75C29.7375 75 34.7375 68.5 35.3375 65.7C35.7375 63.9 37.1375 61 38.5375 59.2C43.2375 52.9 57.3375 39.3 62.3375 36.1C68.0375 32.5 78.4375 29 83.3375 29C86.6375 29 86.7375 29.1 86.1375 32.7C85.3375 39 82.7375 46.2 79.5375 51.7C77.0375 56 75.7375 57.1 71.9375 58.3C67.7375 59.7 67.5375 59.9 69.6375 60.7C71.8375 61.6 71.8375 61.6 68.3375 65C66.3375 66.9 62.6375 69.3 60.0375 70.2C55.9375 71.6 55.6375 71.9 58.2375 71.9C61.1375 72 61.1375 72 59.2375 74.1C56.0375 77.7 50.3375 80 44.6375 80H39.3375L52.6375 66.7C65.4375 53.9 65.8375 53.3 64.0375 51.7C63.0375 50.8 61.7375 50 61.2375 50C60.0375 50 22.8375 87.3 22.8375 88.5C22.8375 89.1 23.8375 90.1 24.9375 90.8C26.8375 92 27.3375 91.9 29.7375 89.7C32.0375 87.5 33.4375 87.2 42.4375 86.8C55.4375 86.2 57.7375 84.9 72.4375 69.8C87.2375 54.6 91.2375 46.8 92.5375 30.2L93.1375 22L88.2375 22.1C85.5375 22.2 80.5375 22.7 77.1375 23.4Z" fill="white"/>
</svg>
